<?xml version="1.0"?>
<svg xmlns="http://www.w3.org/2000/svg" xmlns:xlink="http://www.w3.org/1999/xlink" xmlns:svgjs="http://svgjs.com/svgjs" version="1.1" width="512" height="512" x="0" y="0" viewBox="0 0 512 512" style="enable-background:new 0 0 512 512" xml:space="preserve" class=""><g><path xmlns="http://www.w3.org/2000/svg" d="m494.425781 70.609375c-11.332031-11.328125-26.394531-17.570313-42.414062-17.570313-.003907 0-.007813 0-.011719 0l-193.703125-.003906c-5.4375.054688-10.40625-2.59375-13.328125-6.972656l-30.710938-46.0625h-154.257812c-33.085938 0-60 26.914062-60 60v322.074219c0 33.082031 26.914062 60 60 60h204v-40h-204c-11.027344 0-20-8.972657-20-20v-216.03125c0-5.34375 2.082031-10.363281 5.859375-14.144531 3.777344-3.773438 8.796875-5.855469 14.144531-5.855469h.003906l153.515626-.007813 31.285156-45.519531.15625-.230469c2.84375-4.269531 8.207031-7.25 13.035156-7.25v-.003906c.066406 0 .136719.003906.207031.003906h.136719l193.660156.003906c5.339844 0 10.359375 2.078126 14.136719 5.855469 3.777344 3.777344 5.859375 8.800781 5.859375 14.140625v200h40v-200c0-16.027344-6.242188-31.09375-17.574219-42.425781zm-282.65625 7.355469-19.292969 28.070312-132.464843.007813c-.003907 0-.007813 0-.011719 0-6.921875 0-13.660156 1.167969-20 3.40625v-49.449219c0-11.027344 8.972656-20 20-20h132.851562l18.835938 28.253906c1.148438 1.722656 2.398438 3.355469 3.714844 4.921875-1.285156 1.527344-2.511719 3.117188-3.632813 4.789063zm216.230469 275.070312h84v40h-84v84h-40v-84h-84v-40h84v-84h40zm0 0" fill="#3f51b5" data-original="#000000" style="" class=""/></g></svg>
